<svg xmlns="http://www.w3.org/2000/svg" viewBox="0 0 100 100">
  <defs>
    <linearGradient id="grad" x1="0%" y1="0%" x2="100%" y2="100%">
      <stop offset="0%" style="stop-color:#34d399;stop-opacity:1" />
      <stop offset="50%" style="stop-color:#2dd4bf;stop-opacity:1" />
      <stop offset="100%" style="stop-color:#22d3ee;stop-opacity:1" />
    </linearGradient>
  </defs>
  <rect width="100" height="100" rx="22" fill="url(#grad)"/>
  <path d="M50 20c-8 0-15 4-18 10-2-1-4-2-7-2-8 0-15 7-15 15s7 15 15 15c1 0 2 0 3-0.5C30 70 39 80 50 80s20-10 22-22.5c1 0.5 2 0.5 3 0.5 8 0 15-7 15-15s-7-15-15-15c-3 0-5 1-7 2-3-6-10-10-18-10z" fill="#0f172a" opacity="0.9"/>
</svg>
